<?xml version="1.0" encoding="utf-8"?>
<!-- Generator: Adobe Illustrator 25.2.0, SVG Export Plug-In . SVG Version: 6.00 Build 0)  -->
<svg version="1.1" id="Capa_1" xmlns="http://www.w3.org/2000/svg" xmlns:xlink="http://www.w3.org/1999/xlink" x="0px" y="0px"
	 viewBox="0 0 1500 1500" style="enable-background:new 0 0 1500 1500;" xml:space="preserve">
<g>
	<g>
		<path d="M349.68,622.95c4.26-8.51,6.38-12.77,10.64-21.28c7.07,0.19,13.37,0.17,18.83-0.3c3.86-0.33,11.01-1.33,21.49-2.53
			c10.47-1.2,17.5-1.55,21.04-1.51c3.8,0.04,7.2,0.29,10.21,0.71c3.01,0.42,5.59,1.13,7.76,2.11
			c-16.85,32.5-31.87,65.99-47.12,99.25c-2.12-0.01-3.18-0.01-5.3-0.01c8.75-20.28,24.62-45.91,25.6-61.13
			c0.18-2.85-3.11-6.94-6.33-8.81c-3.22-1.87-7.5-2.79-12.85-2.66c-5.36,0.12-11.5,1.66-18.48,4.65
			c-5.6,11.16-11.2,22.35-16.67,33.55c-12.33,25.23-24.53,50.67-36.79,76.01c-8.19,16.37-4.89,20.26,5.34,34.13
			c7.91,10.71,15.81,21.42,23.72,32.13c6.18,0.05,11.47-0.05,15.89-0.35c6.53-0.45,10.9-1.98,13.17-4.67
			c0.86-1.03,0.82-2.77-0.24-4.87c-4.12-8.15-9.67-16.29-14.71-24.3c-4.48-7.12-6.72-10.68-11.18-17.81
			c2.17-0.05,3.25-0.08,5.43-0.12c14.1,21.78,28.21,43.54,42.33,65.3c15.54,23.36,31.07,46.74,46.58,70.12
			c-1.59,0.14-2.39,0.21-3.97,0.36c-5.07-7.33-7.61-10.99-12.69-18.32c-7.77-11.2-15.37-22.58-23.54-33.49
			c-2.18-2.65-4.44-4.61-6.8-5.86c-4.45-2.31-11.64-3.2-21.44-2.37c-3.46,0.29-6.74,1.01-9.8,2.15
			c14.39,19.49,28.77,38.99,43.16,58.48c18.9,25.59,37.84,51.16,56.82,76.69c8.13,10.93,16.11,22.22,24.72,32.58
			c2.82,3.39,5.32,5.84,7.26,7.31c1.95,1.48,4.74,2.03,8.39,1.69c5.22,7.39,7.83,11.08,13.06,18.47c-4.46-0.73-8.42-0.69-11.78,0.16
			c-3.01,0.76-6.83,2.66-11.25,5.9c-5.95-7.43-8.92-11.15-14.86-18.58c3.01-1.3,4.26-2.83,3.73-4.66c-0.53-1.82-1.75-4.28-3.71-7.2
			c-6.45-9.64-13.87-18.97-20.95-28.29c-20.89-27.5-42.02-54.95-63.03-82.42c-34.36-44.76-68.72-89.53-103.07-134.29
			c13.41-29.75,28.36-58.92,42.49-88.27c5.9-12.25,12.58-24.73,17.14-37.27c1.35-3.7,1.74-6.59,1.33-8.33
			C358.81,623.27,355.62,622.5,349.68,622.95z"/>
		<path d="M439.6,619.84c3.7-8.36,5.55-12.54,9.26-20.91c1.94,0.33,4.9,0.83,8.89,1.54c5.74,1.04,8.61,1.58,14.35,2.69
			c2.98,0.23,7.85,0.23,14.39-0.14c8.58-0.49,13.6-0.76,14.9-0.64c9.89,0.93,15.77,5.37,17.24,12.86
			c2.32,11.82-0.78,24.64-3.33,36.25c-3.94,17.96-10.02,36.05-16.67,53.23c-7.04,18.2-24.27,41.43-26.59,52.35
			c-1.5,7.07,6.13,24.67,6.56,37.25c0.34,9.81-1.59,17.42-5.63,22.74c10.11,14.39,20.12,28.84,30.01,43.39
			c20.17,30.17,39.52,60.8,58.06,91.99c8.37,14.21,16.47,28.57,24.82,42.79c0.82,1.29,1.48,2.21,1.98,2.78
			c0.83,0.93,1.99,1.43,3.49,1.51c2.92,6.99,4.38,10.48,7.3,17.47c-2.54-1.18-4.62-1.81-6.19-1.86c-1.63-0.06-3.39,0.43-5.24,1.5
			c-16-27.17-32.27-54.16-49.09-80.84c-12.1-18.88-24.39-37.62-37.34-55.93c-16.23-22.94-32.93-45.47-50.24-67.6
			c-1.55-3.35-2.32-5.02-3.85-8.37c2.98,0.57,5.19,0.85,6.55,0.9c12.61,0.43,10.36-16.61,9.58-23.11
			c-1.17-9.71-5.69-18.07-3.73-27.72c2.59-12.73,13.52-27.81,18.37-39.95c7.96-19.93,16.94-42.15,18.34-62.73
			c0.49-7.16,2.05-23.72-10.04-24.76c-5.42-0.47-12.17,2.44-20.28,8.74c-4.8,10.83-9.6,21.67-14.34,32.52
			c-3.75,8.58-7.46,17.19-11.18,25.79c-7.36,17.01-29.35,49.11-24.86,66.93c23.39,41.43,46.79,82.85,70.18,124.28
			c13.99,24.74,28.02,49.47,42.09,74.16c6.02,10.57,11.85,21.48,18.44,31.52c2.15,3.28,4.16,5.68,5.78,7.13
			c1.63,1.46,4.21,2.08,7.8,2.09c3.8,7.12,5.7,10.68,9.49,17.79c-4.58-1-8.48-1.07-11.59-0.26c-2.51,0.66-6.53,2.64-11.71,5.67
			c-4.53-7.28-6.79-10.92-11.32-18.19c3.19-1.11,4.7-2.57,4.5-4.35c-0.2-1.76-0.95-4.17-2.36-6.98
			c-4.63-9.25-10.25-18.43-15.56-27.51c-15.63-26.73-31.53-53.44-47.29-80.15c-25.81-43.53-51.62-87.07-77.42-130.6
			c14.51-27.71,25.86-57.39,38.08-86.1c5.11-12,11.06-24.33,14.69-36.58c1.1-3.7,1.27-6.69,0.72-8.61
			C449.05,621.93,445.71,620.56,439.6,619.84z"/>
		<path d="M522.93,826.09c-10.1-24.67-27.84-56.71-14.63-80.85c12.72-23.23,25.03-50.32,40.38-73.48
			c10.58-15.97,22.01-34.32,36.71-45.52c7.48-5.71,18.14-12.96,28.79-8.38c9.77,4.21,14.1,15.09,17.02,23.87
			c4.55,13.65,5.02,29.49,5.05,44.29c0.03,16.21-1.98,33.14-4.07,49.44c-2.14,16.67-7.91,34.91-11.92,48.17
			c-3.74,12.36,5.11,33.54,7.93,48.88c8.28,45.05,14.33,90.67,14.83,136.35c0.14,12.35,3.04,53.15-10.42,56.2
			c-3.26,0.74-9.39-4.3-16.34-13.37c-9.77-12.74-17.52-27.2-25.17-41.2c-11.92-21.82-22.97-44.39-33.63-66.88
			C545.38,878.11,533.6,852.16,522.93,826.09z M529.6,805.52c6.58,17.54,13.71,35.05,20.97,52.33
			c6.45,15.36,13.06,30.75,19.96,45.96c8.4,18.43,16.87,36.94,26.3,54.75c5.83,11.01,11.71,22.28,19.07,32.35
			c5.02,6.88,9.16,10.29,12.53,10.36c4.68,0.09,6.87-6.68,7.18-19.66c0.43-18.15-1.77-36.49-4.14-54.48
			c-3.55-27.01-8.62-54.12-14.39-80.71c-2.75-12.67-5.76-25.42-9.04-38.04c-4.09-15.71-5.58-23.59-0.57-36.93
			c4.53-12.07,5.78-30.21,7.72-45.49c1.58-12.42,2.51-25.05,2.71-37.46c0.15-9.58-0.97-20.52-3.67-29.8
			c-2.53-8.71-6.47-14.44-11.79-16.27c-11.2-3.85-22.09,8.43-28.32,15.11c-15.42,16.53-26.38,39.68-36.7,60.69
			c-3.43,7-6.73,14.16-9.93,21.31c-2.84,8.28-7.05,15.8-12.64,22.56C512.6,772.27,526.03,796,529.6,805.52z"/>
		<path d="M667.11,1016.86c-1.03-6.14-1.55-9.21-2.58-15.36c3.05-0.26,4.87-1.63,5.51-4.09c0.28-0.99,0.37-2.54,0.26-4.66
			c-0.14-3.26-1.07-11.79-2.78-25.59c-2.3-18.51-4.61-37.04-7.06-55.54c-4.39-33.08-8.78-66.16-13.16-99.24
			c-0.77-5.78-3.03-13.13-2.51-18.91c0.82-9.19,6.6-17.38,9.15-27.08c5.75-21.9,11.5-43.81,17.25-65.72
			c1.65-6.3,2.62-10.41,2.91-12.32c0.47-3.44,0.58-7.54,0.36-12.32c-0.15-3.06-0.73-5.02-1.75-5.89c-1.02-0.87-3.65-1.41-7.9-1.65
			c1.98-7.22,2.98-10.84,4.96-18.06c8.52,0.88,13.91,1.26,16.15,1.27c3.81,0.01,7.04,0.71,9,3.21c-2.18,17.96-4.21,35.94-5.91,53.96
			c-2.17,26.86-3.74,53.7-4.59,80.64c-7.5,30.83,6.16,62.66,13.51,92.91c4.95,20.54,9.81,41.1,14.6,61.68
			c2.14,9.42,3.81,16.65,5.12,21.9c-0.83-23.71-1.66-47.43-2.48-71.14c-0.84-24.19-5.83-50.64,4.75-72.56
			c1.88-18.35,3.57-36.72,5.28-55.07c1.24-13.32,1.94-21.8,2-25.34c0.04-2.34-0.1-4.32-0.37-5.88c-0.65-3.64-2.33-7.82-5.07-12.48
			c0.83-6.2,1.24-9.3,2.07-15.5c2.82,5.99,5.74,11.69,8.74,17.15c2.82,5.14,5.41,9.5,7.73,13.1c-0.29,5.67-0.44,8.5-0.73,14.17
			c-2.78-4.35-4.68-6.16-5.74-5.41c-0.45,0.33-0.83,1.48-1.19,3.37c-0.48,2.5-1.4,10.38-2.66,23.59
			c-1.66,17.53-3.31,35.07-4.83,52.62c-12.53,26.85-5.42,63.46-4.64,92.96c0.91,34.57,1.93,69.14,2.91,103.72
			c-1.67-2.23-2.51-3.37-4.23-5.72c-0.39-0.39-0.59-0.59-0.99-0.98c-0.17-0.26-0.32-0.67-0.48-1.18c-0.2-0.65-0.81-3.28-1.85-7.96
			c-2.17-9.77-4.35-19.53-6.5-29.3c-2.53-11.84-5.13-23.66-7.8-35.47c-8.05-34.16-16.47-68.23-25.25-102.21
			c-4.78-18.51-10.97-34.23-7.14-52.79c4.8-23.26,4.2-49.53,5.82-73.25c-5.38,20.97-8.74,44.91-17.14,64.86
			c-6.03,14.32-4.38,23.22-2.58,38.9c3.57,31.12,7.15,62.24,10.72,93.36c2.17,18.75,4.49,37.5,6.81,56.23
			c1.67,13.46,2.79,21.74,3.39,24.84c0.44,2.29,0.92,3.94,1.41,4.94c1.16,2.35,3.16,3.69,6.03,4.06c0.6,5.94,0.91,8.91,1.51,14.84
			c-2.45-1.1-5.05-1.78-7.95-1.67C674.02,1014.89,670.62,1015.59,667.11,1016.86z"/>
		<path d="M746.14,822.37c-1.31-1.3-1.96-1.94-3.27-3.24c0.61-24.42,1.25-48.83,1.55-73.26c2.67,5.52,6.93,9.16,12.68-0.43
			c4.72-7.87,7.88-13.25,9.45-16.08c1.69-3.05,5.58-10.6,11.54-22.7c4.3-8.72,7.4-15.31,9.28-19.72
			c4.97,29.01,10.27,57.97,15.58,86.92c-1.34,1.34-2.02,2.01-3.36,3.35c-1.93-9.67-2.88-14.51-4.78-24.15
			c-2.89-14.54-4.52-22.74-4.97-24.66c-0.45-1.92-0.82-3.19-1.12-3.81c-0.3-0.62-0.71-1.01-1.05-1.01c-0.42,0.01-2,1.5-4.51,4.28
			c-2.52,2.79-4.44,5.26-5.82,7.37c-2.02,3.09-3.03,4.64-5.05,7.74c1.89,20.7,4.09,41.36,6.34,62.03
			c2.11,19.21-4.72,40.98-6.2,61.15c-1.39,18.9-2.77,37.8-4.16,56.7c-1.24,17.11-2.48,34.24-3.64,51.33
			c-0.83,12.25-1.15,19.54-1.01,21.82c0.15,2.28,0.53,3.94,1.14,4.96c0.61,1.02,2.54,1.47,5.77,1.37c-0.46,5.2-0.7,7.8-1.16,13
			c-4.65-0.88-8.21-1.16-10.6-1.01c-1.04,0.06-5.24,0.85-12.51,2.22c0.17-4.51,0.26-6.76,0.43-11.27c3.26-0.66,5.28-1.55,6.05-2.68
			c0.77-1.13,1.32-2.66,1.68-4.53c0.48-2.51,1.1-8.57,1.69-18.07c1.09-17.5,2.12-35.13,3.19-52.7c1.03-18.01,2.06-36.03,3.1-54.04
			c1.15-20,7.93-39.24,6.47-58.43c-0.49-6.4-1.06-13.37-1.7-20.92c-1.07-12.74-2.13-25.49-3.17-38.23c-2.47,3.78-3.7,5.67-6.16,9.45
			c-3.56,5.46-6.35,14.65-8.48,12.9c-0.67-0.58-1.11-0.3-1.32,0.85c-0.33,1.98-0.68,9.39-1.11,22.28
			C746.65,809.61,746.49,813.86,746.14,822.37z"/>
		<path d="M790.34,920.47c0.13-1.21,0.2-1.81,0.33-3.02c1.79-10.07,3.61-20.13,5.45-30.19c11.62-6.52,16.2-9.87,29.65-10.78
			c-0.23,1.41-0.34,2.12-0.57,3.54c-2.79,10.32-5.48,20.68-8.05,31.06C807.78,911.31,798.62,916.72,790.34,920.47z"/>
		<path d="M808.58,1014.85c1.11-5.91,1.67-8.87,2.78-14.79c3.1-0.01,5.38-1.16,6.88-3.45c0.62-0.92,1.25-2.38,1.88-4.4
			c0.99-3.1,3.04-11.27,6.14-24.51c4.15-17.74,8.3-35.5,12.31-53.28c8.96-39.82,17.93-79.64,26.89-119.45
			c8.96-20.83-6.36-51.18-12.73-72.79c-3.09-10.47-5.9-21.55-10.06-31.3c-1.38-3.23-3.2-5.79-4.99-7.5
			c-1.79-1.71-5.86-3.04-12.06-4.31c-1.92-7.12-2.88-10.68-4.8-17.81c8.79,2.01,13.2,2.71,22.69,4.22
			c9.7,0.34,13.87,0.63,23.04,0.57c11.01,0.04,19.08-0.31,24.17-0.39c5.15-0.08,10.37,0.74,15.71,2.52c2.44,9.21,5,18.42,7.79,27.53
			c6,19.28,12.3,38.47,18.48,57.69c-2.14,0.05-3.2,0.07-5.33,0.11c-5.93-17.26-10.71-39.66-18.65-51.46
			c-2.64-3.93-8.62-6.96-12.61-8.44c-6.8-2.53-13.15-3.97-19.05-4.22c-1.27-0.05-3.97,0.2-8.11,0.66c-4.14,0.46-7.08,0.83-8.81,1.22
			c5.56,19.16,11.14,38.31,16.74,57.46c2.48,8.37,4.95,16.74,7.43,25.1c4.7,7.24,4.38,14.18-0.96,20.82
			c-2.5,13.08-7.73,26.52-11.22,39.43c5.83,1.33,11.25,2.08,16.33,2.29c6.17,0.26,11.72-0.45,16.72-2.07
			c1.89-0.59,3.42-1.82,4.57-3.67s3.87-8.21,8.21-19.07c2.57-6.52,1.55-9.53,7.4-16.39c2.08,0.01,3.11,0.02,5.19,0.01
			c-1.54,1.86-1.94,2.76-2.61,4.53c-6.22,16.15-12.43,32.31-18.62,48.47c-6.67,18.11-13.36,36.21-20.06,54.3
			c-1.82-0.04-2.72-0.07-4.54-0.12c2.22-6.33,3.32-9.5,5.53-15.84c4.06-11.49,6.32-18.64,6.77-21.44c0.45-2.81,0.08-4.79-1.11-5.89
			c-2.09-1.93-7.29-2.99-15.36-3.36c-3.3-0.15-12.41-1.14-14.32,0.39c-7.83,6.32-12.6,46.11-18.72,69.19
			c-5.78,21.8-11.54,43.63-17.13,65.5c3.97,1.97,8.61,3.12,14.06,3.46c3.87,0.24,6.85-0.2,8.97-1.34c2.12-1.13,4.47-3.13,7.07-6
			c2.26-4.8,5.19-11.33,8.86-19.54c4.65-10.39,9.4-20.79,14-31.23c1.53,0.05,2.3,0.07,3.84,0.11c-11.47,25.95-22.7,52-33.41,78.27
			c-3.24,1.82-6.49,2.59-9.88,2.32c-9.59-1.52-14.38-2.21-24.13-3.47C819.43,1013.46,815.62,1013.88,808.58,1014.85z"/>
		<path d="M859.56,1018.32c2.61-5.92,3.91-8.88,6.51-14.8c3.19,0.09,5.81-1,7.9-3.3c0.86-0.92,1.86-2.39,3.01-4.43
			c1.78-3.14,5.9-11.41,12.35-24.83c8.64-17.98,17.28-35.97,25.79-54.01c15.19-32.18,30.37-64.36,45.56-96.54
			c2.87-6.09,5.43-12.51,8.68-18.4c6.69-12.12,9.95-13.01,5.18-25.93c-7.91-21.45-15.82-42.91-23.74-64.36
			c-2.28-6.17-3.86-10.17-4.76-12c-1.65-3.27-4.06-7.09-7.21-11.49c-2.02-2.82-3.79-4.55-5.31-5.22c-1.52-0.67-4.52-0.89-8.94-0.72
			c-2.51-7.02-3.77-10.52-6.28-17.54c9.12-0.05,14.47-0.88,16.59-1.49c3.6-1.04,6.94-2.77,9.97-5.15
			c8.81,14.16,17.65,28.3,26.5,42.44c14.36,22.22,28.76,44.41,43.15,66.61c4.23,25.83-15.72,63.21-24.3,88.37
			c-8.33,23.85-17.77,47.16-26.65,70.79c-3.7,9.82-7.33,19.68-11.31,29.39c18.75-33.11,37.51-66.23,56.26-99.34
			c17.55-30.98,44.85-65.84,53.31-100.26c-10.54-24.15-21.33-48.22-32.09-72.25c-4.8-10.72-9.47-21.85-14.95-32.04
			c-1.42-2.64-2.83-4.6-4.04-5.93c-2.85-3.08-6.67-4.83-10.78-1.86c-3.35-7.83-5.03-11.75-8.38-19.59
			c4.76-2.97,10.33-2.1,15.07-5.95c4.47-3.63,8.85-6.09,12.86-8.05c3.63,8.23,5.45,12.35,9.08,20.58c-4.91,1.32-7.12,4.56-7.23,8.31
			c-0.04,1.61,0.46,4.01,1.53,7.13c3.95,11.56,9.03,22.88,13.84,34.16c10.38,24.32,20.81,48.63,31.42,72.86
			c-5.43,23.85-22.55,45.97-34.75,67.36c-12.63,22.15-25.26,44.3-37.89,66.45c-28.63,50.2-57.15,100.46-85.71,150.7
			c0.63-4.27,0.92-6.38,1.44-10.4c0-0.72-0.01-1.08-0.02-1.8c0.07-0.43,0.26-1.05,0.55-1.83c0.35-0.97,1.96-4.83,4.72-11.46
			c5.33-12.98,10.8-25.9,16.19-38.85c5.75-14.21,11.33-28.48,16.79-42.8c12.46-34.25,24.65-68.7,35.95-103.36
			c2.35-7.2,4.61-14.43,6.77-21.7c1.46-4.92,9.1-17.84,8.62-22.47c-0.97-9.3-12.61-20.97-17.48-28.39
			c-6.87-10.47-13.7-20.96-20.51-31.47c4.21,11.25,8.41,22.49,12.62,33.74c2.78,7.43,11.76,21.84,10.3,30.15
			c-0.85,4.86-9.23,14.32-11.84,19.28c-3.16,6.03-5.96,12.28-8.93,18.4c-14.8,30.51-29.6,61.02-44.4,91.53
			c-8.9,18.33-17.65,36.74-26.4,55.13c-6.29,13.21-10.05,21.35-11.25,24.39c-0.88,2.24-1.34,3.85-1.39,4.83
			c-0.11,2.29,1.3,3.62,4.25,3.95c-3.1,6.14-4.65,9.2-7.75,15.34c-1.85-1.39-4.27-2.22-7.22-2.51
			C867.59,1017.39,863.81,1017.59,859.56,1018.32z"/>
		<path d="M926.9,1034.66c3.33-5.48,4.99-8.22,8.32-13.69c5.45-5.78,10.99-11.33,14.61-16.21c11.76-15.88,22.67-36.27,33.94-54.44
			c17.07-27.49,34.17-54.98,51.13-82.54c12.08-19.63,24.15-39.26,36.23-58.9c11.2-18.2,28.65-38.83,32.12-59.75
			c-11.55-25.5-23.28-50.93-35.02-76.33c-5.23-11.32-10.3-23.06-16.35-33.76c-1.52-2.68-2.95-4.53-4.1-5.48
			c-2.7-2.2-6.58-3.41-12.06-3.43c-3.68-8.28-5.52-12.42-9.19-20.7c8.03,0.94,12.88-1.75,18.69-1.85
			c4.47-0.07,10.36-0.61,17.68-1.59c7.32-0.98,13.2-1.55,17.41-1.49c16.48,0.21,29.97,10.83,41.36,21.43
			c21.82,20.32,39.21,47.48,56.07,72.77c10.4,15.61,31.17,38.47,34.7,56.88c3.22,16.75-29.97,47.87-39.68,60
			c-23.26,29.09-47.48,57.8-72.13,85.77c-20.41,23.16-41.23,46.2-62.58,68.53c-14.52,15.18-29.11,30.64-44.54,44.77
			c-8.76,8.02-17.69,16.32-27.52,23.12c-6.95,4.8-12.65,6.24-17.38,4.46c-1.57-0.59-3.44-1.93-5.62-3.53
			c-2.83-2.08-5.15-3.24-6.26-3.62C935.15,1034.55,931.89,1034.48,926.9,1034.66z M959.44,1007.02c0.89,4.62,2.98,7.5,6.48,8.6
			c3.61,1.13,8.25,0,14.14-3.45c5.88-3.45,12.81-8.82,20.71-16.14c11.41-10.58,22.08-22.1,32.68-33.49
			c17.6-18.91,34.43-38.78,50.97-58.64c20.53-24.64,40.79-49.81,60.34-75.21c13.13-17.07,26.12-34.41,38.59-52.05
			c7.35-10.39,11.07-13.26,8.92-23.88c-1.62-8.01-9.93-17.12-14.32-24.27c-15.09-24.62-31.1-50.22-50.76-70.71
			c-10.91-11.37-24.35-24.07-41.12-24.51c-6.39-0.17-12.17,2.11-16.97,6.35c8.71,19.47,17.6,38.87,26.46,58.27
			c7.35,16.18,14.7,32.36,22.04,48.54c2.88,19.32-18.92,42.57-29.63,59.28c-12.4,19.35-24.8,38.7-37.2,58.05
			c-19.21,30.08-38.42,60.16-57.64,90.23C981.86,971.63,970.65,989.33,959.44,1007.02z"/>
	</g>
</g>
<g>
	<g>
		<path d="M653.27,1225.59c-1.84-2.36-2.75-3.54-4.59-5.9c-1.27-1.81-2.08-3.04-2.47-3.59c-0.4-0.55-1.18-1.61-2.35-3.18
			c-1.85-2.48-5.87-7.84-12.05-16.09c-6.18-8.25-10.9-14.56-14.16-18.9c-19.3-25.67-38.6-51.35-57.9-77.02
			c-7.38-9.82-14.82-19.6-22.31-29.34c-5.42-7.04-8.9-11.39-10.45-13.01c-1.01-1.06-1.91-1.8-2.67-2.22
			c-1.78-0.97-4.1-1.14-6.93-0.47c-2.5-3.12-3.74-4.68-6.24-7.8c1.03-0.1,2.23-0.35,3.6-0.74c3.61-0.72,5.42-1.05,9.04-1.67
			c5.74-2.03,8.64-2.99,14.5-4.98c4.08-0.99,8.11-0.36,11.98,1.98c3.87,2.34,8.25,6.64,13.11,12.94c4.86,6.3,9.47,13.56,13.94,21.65
			c3.55,6.44,6.56,12.52,9.08,18.2c2.52,5.67,4.44,10.56,5.79,14.64c1.34,4.08,2.18,7.33,2.5,9.78c0.32,2.44,0.19,4.61-0.37,6.47
			c3.07,1.25,5.96,2.98,8.63,5.21c2.68,2.22,5.66,5.46,8.93,9.75c3.27,4.29,6.76,9.49,10.48,15.61c3.72,6.11,7.6,12.92,11.54,20.31
			c6.52,12.23,12.84,24.67,18.89,37.19c4.85,10.03,8.02,16.64,9.41,19.92c1.02,2.42,0.78,2.59-0.87,0.67
			c-2.28-2.75-3.43-4.12-5.74-6.83C655.05,1227.5,654.26,1226.67,653.27,1225.59z M581.01,1121.57c1.38,0.34,2.51,0.56,3.41,0.62
			c2.6,0.19,4.04-0.5,4.36-2.16c0.33-1.65,0.01-3.92-0.95-6.79c-0.96-2.87-2.66-6.81-5.09-11.82c-2.43-5.01-5.65-10.9-9.6-17.61
			c-5.19-8.81-10.88-18.05-18.36-25.01c-5.16-4.8-10.05-6.68-14.15-5.82c-2.28,0.48-5.1,2.47-5.08,3.36
			c0.09,6.27,15.55,22.65,23.43,33.9C566.32,1100.69,573.66,1111.13,581.01,1121.57z M648.69,1217.77c1.88,2.45,3.58,4.24,4.61,5.24
			c1.64,1.6,1.76,1.05,0.47-1.79c-1.29-2.84-3.93-7.94-7.9-15.3c-4.76-8.84-9.73-17.65-14.74-26.32
			c-4.99-8.62-10.21-17.33-15.86-25.59c-4.77-6.98-8.96-12.21-12.56-15.68c-3.6-3.48-7.33-5.41-11.09-5.91
			c-0.86-0.11-1.84-0.08-2.94,0.1c11.72,16.66,23.44,33.32,35.16,49.98C632.14,1194.26,640.3,1206.82,648.69,1217.77z"/>
		<path d="M673.49,1249.08c-2.1-4.11-3.15-6.16-5.25-10.27c0.92,0.87,1.35,1.14,1.31,0.82c-0.04-0.32-0.34-1.17-0.91-2.57
			c-0.57-1.39-2.28-5.24-5.07-11.61c-6.1-13.91-11.9-27.95-17.57-42.04c-11.43-28.99-21.97-58.25-31.71-87.85
			c-7.21-22.15-13.94-44.44-20.35-66.83c1.13,0.02,1.69,0.04,2.82,0.07c27.4,56.01,51.97,113.19,73.99,171.52
			c6.72,18.16,13.26,36.38,19.61,54.67c1.48,4.25,2.54,7.16,3.2,8.71c0.66,1.56,1.49,2.9,2.5,4.03c1.37,4.74,2.05,7.11,3.41,11.85
			c-2.13-3.26-3.58-5.29-4.3-6.12c-2.02-1.91-3.02-2.87-5-4.82c-1.63-4.54-2.45-6.81-4.08-11.35c1.3,1.23,2,1.71,2.11,1.46
			c0.1-0.25,0.03-0.86-0.22-1.82c-0.25-0.96-0.64-2.23-1.17-3.81c-0.83-2.48-2-5.79-3.52-9.9c-6.68-17.9-13.56-35.72-20.64-53.47
			c-6-3.28-9.03-5-14.97-7.88c5.07,13.12,10.28,26.17,15.64,39.17c2.89,6.93,5.14,12.04,6.69,15.39c0.67,1.47,1.28,2.72,1.81,3.76
			c0.76,1.5,1.41,2.66,1.93,3.47c0.84,1.31,1.85,2.6,3.04,3.89c1.88,4.35,2.82,6.53,4.7,10.88c-2.35-3.23-4.04-5.38-5.01-6.49
			C675.35,1250.63,674.35,1249.7,673.49,1249.08z M642.67,1168.69c5.5,2.28,8.29,3.65,13.84,6.29
			c-14.38-34.39-29.62-68.34-45.81-101.91C620.46,1105.26,631.08,1137.11,642.67,1168.69z"/>
		<path d="M720.06,1274.04c0.58,7.02,0.88,10.52,1.51,17.49c-0.48,6.21-1.04,10.2-1.81,12.08c-0.77,1.88-1.84,1.87-3.31,0.05
			c-1.73-2.13-3.77-6.55-6.32-13.11c-2.55-6.56-5.46-14.84-8.82-24.78c-3.59-10.61-7.13-21.28-10.59-31.91
			c-3.89-11.96-7.7-24.03-11.43-36.05c-4.22-13.64-8.24-27.47-11.98-41.19c-8.14-29.93-17.15-62.03-16.55-92.65
			c0.24-12.4,0.75-37.15,17.17-38.55c2.5-0.21,5.18,0.46,7.62,1.71c2.44,1.25,5.54,3.72,9.21,7.46c3.67,3.74,5.84,5.98,6.61,6.63
			c0.27,7.19,0.7,14.25,1.29,21.13c1.11,12.8,2.55,25.63,4.07,38.42c-0.91-0.1-1.37-0.16-2.28-0.26
			c-1.25-9.17-1.88-13.75-3.14-22.92c-1.83-9.58-3.37-19.81-8.29-28.37c-3.54-6.16-8.31-9.31-13.45-9.08
			c-3.81,0.17-6.88,2.62-8.74,6.85c-1.86,4.24-2.81,10.86-2.76,19.8c0.06,11.35,1.64,22.69,3.29,33.8
			c2.54,17.17,6.75,34.44,10.9,51.33c7.43,30.28,16.02,60.66,25.54,90.44c4.54,14.18,7.84,32.22,16.62,42.9
			c1.41,1.72,2.88,0.95,3.69-2.52c0.56-2.37,0.88-6.71,1.06-13.12C719.54,1271.39,719.71,1272.27,720.06,1274.04z"/>
		<path d="M735.51,1309.52c0.3,5.28,0.45,7.93,0.75,13.21c-2.12-3.1-3.18-4.65-5.33-7.72c-0.36-0.42-1.96-1.76-4.73-4.1
			c-0.57-5.06-0.85-7.59-1.42-12.65c1.41,1.25,2.23,1.47,2.44,0.67c0.21-0.8,0.29-2.15,0.22-4.02c-0.09-2.51-0.6-8.92-1.53-19.17
			c-1.71-18.96-3.47-37.94-5.21-56.91c-2.87-30.96-5.75-61.93-8.62-92.89c-1.66-17.79-3.33-35.61-5.07-53.37
			c-1.24-12.69-2.16-20.23-2.69-22.57c-0.53-2.34-1.21-4.07-2.02-5.2c-0.81-1.13-2.88-1.82-6.21-2.05
			c-0.57-5.06-0.85-7.59-1.42-12.65c5.61,0.63,9.86,0.92,12.79,0.85c2.9-0.07,6.95-0.58,12.19-1.53c0.3,5.28,0.45,7.93,0.75,13.21
			c-3.25,0.28-5.2,1.01-5.83,2.16c-0.64,1.16-0.99,2.76-1.1,4.79c-0.14,2.7,0.09,9.32,0.82,19.73c1.35,19.21,2.78,38.51,4.18,57.77
			c1.05,13.97,2.1,27.94,3.15,41.91c0.8-3.6,1.61-10.09,2.58-19.57c0.99-9.63,1.54-14.5,2.75-24.31
			c1.87-15.24,3.93-30.43,6.17-45.62c1.81-11.63,3.75-23.25,5.46-34.89c-0.11-6.22-0.17-9.32-0.28-15.54
			c3.4,0.52,6.05,0.78,7.99,0.76c2.07-0.02,4.3-0.31,6.7-0.95c-0.06,5.64-0.09,8.46-0.15,14.09c-2.63,0.12-4.41,0.61-5.32,1.75
			c-0.91,1.14-1.8,3.28-2.66,6.41c-2.91,11.72-5.05,23.6-7.22,35.47c-4.21,24.61-7.83,49.25-10.77,74.04
			c8.51,41.76,14.84,83.72,19.37,126.1c1.12,11.47,1.77,23.29,3.22,34.42c0.19,1.45,0.69,1.92,1.39,1.33
			c-0.08,5.36-0.12,8.04-0.2,13.4c-1.12,0.75-1.87,0.66-2.25,0.22c-0.43-0.5-1.33-1.25-2.69-2.29c-1.03-12.53-2.32-25.02-3.66-37.52
			c-1.02-9.13-1.57-13.67-2.74-22.68c-4.32-31.62-9.69-62.99-16.26-94.23c-0.19,0.97-0.29,1.45-0.48,2.42
			c0.99,13.16,1.98,26.31,2.96,39.47c1.36,17.99,2.74,35.99,4.13,53.98c1,12.91,1.65,20.66,1.97,23.25
			c0.33,2.59,0.69,4.63,1.09,6.11C733.12,1306.09,734.05,1307.73,735.51,1309.52z"/>
		<path d="M753.59,1240.36c0.02-1.21,0.04-1.81,0.06-3.02c0.57-9.8,1.18-19.6,1.83-29.4c5.94-2.62,8.91-3.91,14.85-6.45
			c-0.09,1.24-0.13,1.86-0.22,3.11c-1.1,9.4-2.16,18.81-3.17,28.23C761.59,1235.81,758.93,1237.32,753.59,1240.36z"/>
		<path d="M763.86,1320.31c0.43-5.17,0.65-7.76,1.08-12.94c1.3-1.49,2.24-3.47,2.85-5.92c0.25-0.99,0.5-2.41,0.75-4.24
			c0.39-2.83,1.19-10.02,2.39-21.56c1.61-15.44,3.21-30.88,4.76-46.33c3.46-34.53,6.92-69.07,10.39-103.6
			c1.79-17.97,3.58-35.96,5.29-53.92c1.22-12.82,1.77-20.44,1.68-22.8c-0.08-2.36-0.42-4.11-1.02-5.26
			c-0.6-1.14-2.54-1.84-5.83-2.06c0.43-5.26,0.64-7.9,1.07-13.16c4.85,0.52,7.27,0.8,12.1,1.37c5.22-0.31,7.84-0.44,13.09-0.65
			c6.28-0.17,10.85-0.13,13.67,0.03c2.85,0.16,5.43,1.02,7.69,2.57c-1.85,7.15-3.35,13.39-4.52,18.69
			c-2.81,13.13-5.49,26.28-8.19,39.43c-0.94,0.06-1.42,0.09-2.36,0.15c2.11-11.8,6.72-26.28,5.91-35.47
			c-0.21-2.38-2.31-4.95-3.94-6.01c-2.78-1.82-5.76-2.81-8.86-2.83c-0.66-0.01-2.18,0.24-4.55,0.77c-2.36,0.53-4.06,1-5.09,1.41
			c-1.77,13.85-3.51,27.71-5.22,41.56c-2.74,22.52-5.47,45.05-8.2,67.57c2.35,0.14,4.53-0.08,6.58-0.62c2.48-0.66,4.7-1.93,6.7-3.8
			c0.76-0.68,1.36-1.82,1.81-3.41c0.45-1.59,1.5-6.9,3.17-15.91c0.99-5.41,1.48-8.11,2.48-13.51c0.83-0.12,1.25-0.18,2.08-0.31
			c-0.26,1.46-0.38,2.18-0.64,3.64c-2.39,13.29-4.78,26.59-7.16,39.88c-2.56,14.86-5.12,29.73-7.69,44.59
			c-0.73,0.35-1.1,0.52-1.83,0.87c0.85-5.22,1.27-7.84,2.12-13.07c1.56-9.49,2.42-15.36,2.58-17.6c0.16-2.24,0-3.72-0.48-4.41
			c-0.84-1.18-2.95-1.27-6.2-0.22c-1.33,0.43-4.89,1.52-5.77,2.86c-6.13,9.34-4.85,39.62-7.2,59.44
			c-2.22,18.69-4.42,37.39-6.57,56.1c1.66-0.32,3.6-1.62,5.86-3.86c1.6-1.58,2.83-3.23,3.69-4.92c0.86-1.69,1.81-4.03,2.85-7
			c0.88-4.08,2.01-9.56,3.43-16.41c2.39-11.52,4.23-20.14,5.41-25.9c0.62-0.38,0.93-0.58,1.56-0.96
			c-4.42,21.21-8.75,42.43-12.85,63.71c-1.32,2.78-2.66,5.02-4.07,6.67c-4.01,4.2-6.03,6.29-10.11,10.44
			C768.4,1313.58,766.81,1315.86,763.86,1320.31z"/>
		<path d="M785.17,1295.33c1-4.69,1.5-7.04,2.5-11.73c1.31-1.46,2.38-3.33,3.21-5.58c0.34-0.91,0.74-2.2,1.18-3.87
			c0.69-2.57,2.28-9.08,4.76-19.52c3.32-13.96,6.63-27.92,9.91-41.89c11.65-49.79,23.31-99.59,34.96-149.38
			c0.94-4.03,1.5-6.66,1.68-7.89c0.29-2.21,0.41-4.86,0.34-7.97c-0.05-1.99-0.35-3.28-0.88-3.88c-0.54-0.59-1.93-1.02-4.18-1.27
			c0.99-4.7,1.49-7.05,2.49-11.74c4.72,0.87,7.69,1.38,8.94,1.49c2.11,0.19,4.27,0.14,6.48-0.13c-0.74,9.94-1.49,19.88-2.48,29.8
			c-1.38,15.03-3.01,30-4.9,44.98c-2.79,20.46-6.15,40.76-10.19,61.01c-3.02,14.51-6.42,28.93-10.23,43.25
			c-1.84,6.76-3.31,11.97-4.4,15.7c15.58-39.65,31.16-79.31,46.74-118.96c4.89-12.45,9.7-24.95,14.46-37.45
			c3.43-9.01,5.48-14.65,6.04-16.84c0.37-1.42,0.46-2.52,0.31-3.23c-0.35-1.66-2-2.78-4.92-3.3c1.53-4.19,2.29-6.28,3.82-10.47
			c3.3,1.01,6.87,1.51,9.82,2.57c2.77,0.99,5.14,2.45,7.41,3.57c-1.7,3.92-2.55,5.88-4.24,9.8c-2.32-1.48-4.18-1.55-5.54-0.43
			c-0.58,0.48-1.24,1.47-1.99,2.88c-1.03,1.92-3.5,7.48-7.33,16.66c-5.06,12.12-10.07,24.25-15,36.42
			c-10.46,25.77-20.92,51.54-31.37,77.31c-11.83,29.16-23.63,58.33-35.46,87.49c0.1-1.07,0.14-1.63,0.21-2.75
			c-0.04-0.13-0.06-0.2-0.09-0.33c0.02-0.14,0.08-0.39,0.19-0.76c0.13-0.45,0.76-2.38,1.84-5.82c2.91-9.23,4.95-16.42,6.33-21.32
			c2.85-10.01,4.2-15.1,6.73-25.43c10.96-47.55,17.46-95.5,20.89-144.16c-11.39,46.47-22.78,92.94-34.18,139.41
			c-3.42,13.95-6.78,27.91-10.15,41.87c-2.42,10.01-3.86,16.1-4.31,18.29c-0.33,1.61-0.5,2.68-0.51,3.23
			c-0.01,1.28,0.6,1.31,1.84,0.11c-1.21,4.5-1.81,6.75-3.01,11.26c-0.79,0.35-1.81,1.22-3.03,2.63
			C788.48,1290.53,786.91,1292.64,785.17,1295.33z"/>
		<path d="M814.98,1260.61c1.33-2.89,2-4.34,3.33-7.23c2.21-4.02,4.36-7.61,5.97-10.67c4.68-8.91,9.06-18.74,13.59-28.1
			c6.82-14.1,13.67-28.19,20.47-42.31c9.66-20.08,19.32-40.15,28.98-60.23c5.44-11.3,10.8-22.64,16.1-34.01
			c3.82-8.2,6.08-13.33,6.74-15.38c0.43-1.33,0.61-2.38,0.55-3.13c-0.16-1.73-1.49-3.29-3.79-4.96c1.73-3.85,2.59-5.77,4.32-9.62
			c3.09,3,6.42,4.57,9.51,5.62c2.37,0.81,5.69,1.74,9.93,2.85c4.23,1.11,7.44,2.15,9.64,3.01c6.57,2.59,10.15,7.62,10.27,14.22
			c0.19,9.98-4.98,20.12-9.24,28.59c-7.53,14.97-18.73,28.92-29.38,42.34c-8.86,11.16-18.16,22.14-27.42,33.06
			c-8.07,9.52-16.11,19.06-24.04,28.69c-7.11,8.65-12.9,15.99-17.45,21.87c-4.55,5.88-8.23,10.84-11.1,14.73
			c-2.87,3.89-5.31,7.13-7.42,9.57c-0.7,0.81-1.56,1.72-2.53,2.71c-1.36,1.39-2.29,2.39-2.78,2.94
			C818.53,1256,817.09,1257.8,814.98,1260.61z M828.41,1238.88c0.45,0.55,1.4,0.05,2.92-1.38c1.57-1.48,3.52-3.78,5.94-6.81
			c2.42-3.02,5.2-6.6,8.36-10.7c3.16-4.1,7.42-9.69,12.84-16.67c6.59-8.46,13.17-16.95,19.71-25.44
			c7.79-10.11,15.63-20.33,23.14-30.56c9.2-12.54,18.8-25.54,26.07-39.03c4.51-8.37,9.5-17.73,10.49-27.58
			c0.71-7.11-2.14-12.08-8.23-14.18c-3.2-1.1-6.98-1.32-11.26-0.55c-4.44,8.24-8.77,16.54-13.12,24.82
			c-4.37,8.28-6.55,12.42-10.91,20.72c-9.87,19.03-19.74,38.07-29.61,57.1c-7.64,14.78-15.29,29.55-22.94,44.32
			C837.34,1221.59,832.88,1230.24,828.41,1238.88z"/>
	</g>
</g>
<g>
	<g>
		<path d="M508.32,305.67c2.66-5.33,4-7.99,6.66-13.32c0.49,1.94,0.75,2.9,1.29,4.82c0.93,0.83,1.38,1.25,2.26,2.09
			c-2.14,5.15-3.21,7.72-5.36,12.87c-0.77-0.61-1.48-0.43-2.13,0.52c-0.65,0.96-1.46,2.43-2.42,4.38
			c-1.28,2.62-4.25,9.14-8.92,19.55c-8.61,19.21-17.19,38.45-25.79,57.68c-4.2,9.42-8.4,18.83-12.6,28.25
			c3.19,1.58,7.47,2.9,12.75,4.11c4.05,0.93,7.46,1.3,10.17,1.02c2.85-9.07,5.71-18.14,8.56-27.22
			c5.46-17.37,10.9-34.75,16.33-52.12c3.88-12.42,6.15-19.82,6.81-22.19c0.65-2.37,1.08-4.21,1.3-5.51c0.21-1.3,0.03-2.53-0.53-3.69
			c1.76-5.05,2.64-7.58,4.39-12.63c0.59,2.48,1.1,4.01,1.43,4.64c0.12,0.23,0.87,0.98,2.11,2.26c-1.23,4.95-1.84,7.42-3.07,12.37
			c-0.72-0.64-1.3-0.5-1.75,0.4c-0.45,0.9-0.98,2.3-1.58,4.17c-0.8,2.49-2.63,8.72-5.47,18.68c-5.23,18.38-10.43,36.78-15.65,55.16
			c-8.48,30-16.96,60.01-25.43,90.01c-4.84,17.16-9.62,34.35-14.36,51.53c-3.4,12.31-5.23,19.66-5.48,22.01
			c-0.25,2.36-0.06,4.12,0.57,5.28c0.63,1.16,3.03,2,7.22,2.57c-1.25,5.03-1.87,7.54-3.12,12.57c-6.98-1.49-12.72-2.3-17.3-2.48
			c-4.89-0.19-10.09,0.19-15.69,1.19c1.78-5.13,2.68-7.69,4.46-12.82c4.36-0.18,7.18-0.76,8.45-1.84c1.27-1.08,2.39-2.58,3.36-4.52
			c1.29-2.58,3.54-8.9,6.77-18.93c5.96-18.48,11.83-37,17.72-55.51c4.68-14.86,9.35-29.72,14.03-44.57
			c-5.58-2.04-9.81-3.26-12.79-3.78c-3.25-0.57-7.53-0.85-12.92-0.64c-6.88,15.42-13.75,30.84-20.63,46.26
			c-7.98,17.91-15.95,35.84-23.83,53.77c-5.64,12.83-8.78,20.47-9.46,22.88c-0.68,2.41-0.82,4.16-0.42,5.26
			c0.4,1.09,2.65,1.65,6.78,1.77c-2.18,5.23-3.26,7.84-5.44,13.07c-4.51-0.98-9.35-1.27-14.59-0.81c-5.72,0.5-11.66,1.76-17.91,3.83
			c2.71-5.41,4.06-8.12,6.76-13.53c4.27-0.83,7.16-1.82,8.63-3.08c1.47-1.26,2.88-2.94,4.19-5.03c1.72-2.75,5.14-9.45,10.21-20
			c9.33-19.38,18.53-38.88,27.78-58.32c14.99-31.69,29.98-63.38,44.97-95.07c8.61-18.21,17.21-36.43,25.79-54.64
			c6.13-13.02,9.73-20.78,10.8-23.26c1.07-2.48,1.81-4.39,2.22-5.74C508.89,308.06,508.84,306.81,508.32,305.67z"/>
		<path d="M511.76,376.86c-0.44-0.25-0.66-0.37-1.1-0.62c4.87-21.3,9.74-42.61,14.58-63.92c0.32,1.37,0.86,3.39,1.74,5.93
			c0.69,1.97,1.24,3.22,1.52,3.71c0.3,0.53,1.07,1.38,2.13,2.56c0.79,0.88,1.34,1.42,1.68,1.56c-0.46,20.62-0.96,41.24-1.44,61.86
			c-0.45-0.26-0.67-0.4-1.12-0.66c0.19-7.24,0.28-10.86,0.49-18.11c0.31-10.95,0.5-17.19,0.53-18.71c0.03-1.52,0.04-2.62,0.03-3.29
			c-0.01-0.67-0.04-1.24-0.11-1.69c-0.07-0.47-0.39-1.36-0.9-2.63c-0.51-1.28-0.91-2.11-1.23-2.48c-0.46-0.55-0.69-0.83-1.16-1.38
			c-1.85,16.32-3.66,32.65-5.45,48.98c-4.03,36.96-8.07,73.92-12.1,110.88c-1.82,16.74-3.63,33.52-5.34,50.25
			c-1.22,12-1.73,19.18-1.57,21.5c0.16,2.32,0.64,4.07,1.44,5.24c0.8,1.17,3.31,2.12,7.54,2.84c-0.35,4.83-0.53,7.24-0.88,12.07
			c-6.57-1.67-11.49-2.68-14.83-3.01c-1.45-0.14-7.27-0.23-17.68-0.1c0.87-4.9,1.31-7.34,2.18-12.24c4.32,0.16,7.02-0.24,8.12-1.23
			c1.09-0.98,1.92-2.43,2.52-4.28c0.8-2.48,2.03-8.64,3.48-18.37c2.68-17.93,5.26-36.02,7.89-54.03
			c5.26-36.99,10.53-73.99,15.79-110.98c0.76-5.33,1.58-11.17,2.46-17.53c1.5-10.75,3.01-21.49,4.53-32.24
			c-0.57-0.67-0.85-1.01-1.41-1.68c-0.82-0.97-1.58-1.1-2.35-0.39c-0.24,0.2-0.52,0.92-0.84,2.15c-0.54,2.1-2.11,9.01-4.75,20.74
			C514.42,365.26,513.54,369.13,511.76,376.86z"/>
		<path d="M532.74,339c0.02-4.79,0.03-7.18,0.05-11.97c0.42,1.32,0.84,2.36,1.24,3.11c0.4,0.76,0.77,1.24,1.1,1.44
			c1.86,22.46,4.1,44.88,7.15,67.21c7.2,50.66,17.36,100.56,30.21,150.09c-2.54-43.27-7.53-86.1-14.83-128.82
			c-4.65-25.46-9.91-50.77-16.07-75.92c0.55,1.34,0.99,2.29,1.29,2.87c0.28,0.53,0.65,1.13,1.1,1.79c1.54,4.92,2.31,7.38,3.85,12.29
			c-0.56-0.73-0.76-0.65-0.59,0.22c0.17,0.87,0.5,2.22,0.98,4.04c0.65,2.43,2.34,8.52,5.09,18.27
			c5.07,17.99,10.14,35.98,15.19,53.97c8.29,29.37,16.58,58.73,24.87,88.1c4.77,16.85,9.56,33.7,14.41,50.51
			c3.49,12.09,5.76,19.37,6.79,21.83c1.02,2.46,2.11,4.43,3.26,5.9c1.15,1.48,3.73,3.26,7.71,5.51c1.54,4.92,2.31,7.37,3.85,12.29
			c-7.26-4.62-12.29-7.32-15.14-8.55c-2.3-0.99-7.21-2.62-14.94-4.37c-1.06-4.81-1.59-7.21-2.65-12.02
			c3.93,1.22,6.18,1.54,6.78,0.82c0.6-0.72,0.79-1.97,0.63-3.73c-0.22-2.32-1.51-8.35-3.9-18.02c-4.41-17.86-8.9-35.71-13.37-53.56
			c-11.72-46.23-23.43-92.46-35.15-138.69c9.65,43.23,17.09,86.68,22.06,130.69c1.65,16.28,3.08,32.57,4.2,48.89
			c0.98,14.28,1.8,28.58,2.39,42.89c-0.83-0.23-1.25-0.35-2.09-0.58c-1.17-4.85-2.15-8.75-2.94-11.71
			c-2.48-9.28-4.86-18.6-7.12-27.94c-15.12-62.79-25.79-126.17-31.44-190.51c2.09,43.54,4.19,87.09,6.28,130.63
			c0.8,16.48,1.64,32.96,2.56,49.42c0.66,11.81,1.26,18.88,1.76,21.19c0.5,2.31,1.22,4.07,2.15,5.3c0.93,1.22,3.45,2.34,7.54,3.46
			c0.4,4.76,0.6,7.15,1,11.91c-5.2-1.66-7.8-2.43-12.98-3.89c-5.3-0.29-7.98-0.39-13.36-0.48c0.02-4.79,0.03-7.18,0.05-11.97
			c4.08,0.31,6.55,0.06,7.42-0.85c0.87-0.91,1.46-2.29,1.72-4.08c0.35-2.39,0.42-8.42,0.2-17.96c-0.4-17.62-0.97-35.29-1.49-52.94
			c-0.91-28.79-1.82-57.58-2.73-86.37c-0.53-16.55-1.06-33.11-1.61-49.65c-0.39-11.83-0.66-18.89-0.79-21.15
			c-0.13-2.26-0.29-4.02-0.45-5.28C533.8,341.38,533.39,340.16,532.74,339z"/>
		<path d="M638.27,626.41c-1.36-4.03-2.05-6.05-3.41-10.08c0.77-2.61,0.98-4.86,0.75-6.76c-0.09-0.98-0.39-2.35-0.91-4.09
			c-1-3.47-3.56-11.17-7.71-23.09c-3.68-10.57-7.36-21.15-11.08-31.72c-12.38-35.01-24.77-70.02-37.15-105.03
			c-6.13-17.33-12.27-34.65-18.41-51.97c-4.39-12.39-7.02-19.77-7.89-22.15c-0.87-2.37-1.57-4.22-2.09-5.54
			c-0.52-1.31-1.15-2.6-1.87-3.85c-1.61-4.94-2.41-7.41-4.02-12.35c1.32,2.94,2.16,4.67,2.4,5.13c0.27,0.51,0.69,1.11,1.15,1.8
			c2.06,5.06,3.09,7.59,5.16,12.65c-0.45-0.76-0.62-0.64-0.33,0.29c0.29,0.93,0.78,2.35,1.47,4.25c0.93,2.54,3.31,8.87,7.13,18.96
			c7.06,18.65,14.14,37.3,21.2,55.96c16.75,44.16,33.51,88.33,50.26,132.49c4.27,11.26,8.56,22.5,12.96,33.71
			c3.63,0.8,8.14,4.58,10.02,5.01c4.73,1.08,15.82-1.85,17.43-6.42c-1.45-3.88-3.26-8.35-5.42-13.4
			c-4.65-10.76-9.37-21.48-14.16-32.17c1.16,0.09,1.74,0.13,2.9,0.22c10.87,22.57,21.67,45.17,32.43,67.79
			c-1,1.02-1.92,1.72-2.66,1.91c-1.64,0.44-4.66,0.55-8.71,0.51c-11.65-0.71-18.89-7.58-30.15-7.92
			C644.36,628.6,641.28,627.23,638.27,626.41z"/>
	</g>
</g>
<g>
	<g>
		<path d="M940.18,608.12c-1.89,8.5-2.88,12.74-4.96,21.18c-7.25,8.79-14.41,16.73-24.62,22.01c-8.24,4.26-17.36,6.46-26.22,6.73
			c-8.67,0.26-20.3-3.37-26.97-9.11c-6.66-5.73-12.81-16.02-14.65-24.58c-2.37-11.05-1.75-22.81-0.19-33.79
			c1.86-13.11,6.06-26.66,10.99-39.22c5.99-15.27,13.04-30.34,20.47-44.97c17.98-35.41,39.39-69.93,57.19-105.49
			c8.85-17.68,16.06-36.87,24.13-54.24c0.57-1.22,1.06-1.66,1.38-1.23c0.32,0.43,0.61,2,1.14,4.69c0.53,2.69,1.08,4.17,1.29,4.53
			c-0.81,8.14-1.65,16.08-2.44,23.79c-1.44,14.19-2.86,28.41-4.25,42.62c-0.84,0.58-1.27,0.85-2.13,1.36
			c1.07-10.09,1.6-15.14,2.68-25.24c0.94-9.64,1.74-19.47,1.36-29.1c-0.22-5.51-1.17-7.01-3.01-4.55c-1.53,2.04-3.39,6.22-6,12.19
			c-2.61,5.97-6.2,14.43-11.15,25.31c-6.06,13.33-12.3,26.59-18.55,39.82c-9.04,19.13-17.96,38.49-26.19,57.84
			c-12.64,29.69-29.17,65.44-25.53,98.06c2.09,18.76,10.22,39.71,33.44,38.74c8.55-0.36,19.27-4.84,25.86-10.18
			c5.4-4.36,10.9-11.32,15.88-21.06C939.54,605.79,939.75,606.57,940.18,608.12z"/>
		<path d="M948.65,629.85c2.26-22.11,3.14-44.38,4.15-66.57c1.75-1.3,2.6-2,4.22-3.45c-0.18,11.65-0.96,23.77,0.2,35.04
			c0.32,3.14,1.59,6.02,3.37,8.19c1.79,2.17,4.03,2.65,7.64,3.1c3.61,0.44,7.53,0.12,11.12-1.98c5.25-3.07,9.62-12.45,13.18-17.53
			c4.95-7.09,5.75-20.32,6.24-29.53c0.56-10.69,0.08-22.35-1.41-33c-1.18-8.44-2.53-15.6-4.07-21.26
			c-1.54-5.67-3.23-9.86-4.99-12.41c-1.76-2.55-3.61-3.92-5.99-5.28c-1.39-0.8-3.59,0.91-7.32,1.75c-3.74,0.85-7.48,1.05-9.32,0.66
			c-2.67-0.56-4.84-3.74-6.07-8.32c-1.22-4.58-2.09-11.48-2.52-20.58c-0.48-10.22-0.31-20.65,0.25-30.86
			c0.89-16.23,2.13-32.45,3.5-48.64c1.08-12.72,2.15-25.5,3.45-38.19c0.99-9.66,1.71-15.26,2.69-17.19c0.59-1.16,1.34-0.9,2.43,0.64
			c1.1,1.54,2.44,4.43,4.25,8.81c1.17,8.27,2.22,15.94,3.23,23.01c1.47,10.36,3.02,20.72,4.55,31.07c-0.84,0.61-1.25,0.94-2.04,1.67
			c-1.48-10.75-2.9-21.51-4.55-32.23c-0.95-4.23-1.9-7.88-2.8-10.94c-2-5.84-3.26-8.29-4.3-6.62c-1.35,2.16-2.19,9.65-3.14,23.09
			c-1.16,16.5-1.71,33.13-1.93,49.62c-0.16,11.65,0.09,20.37,0.67,25.9c0.58,5.53,1.79,8.98,3.92,10.94
			c1.44,1.33,4.09,2.13,7.5,1.28c3.41-0.85,7.43-0.54,9.82-0.17c2.53,0.39,5.9,4.22,8.22,8.46c2.33,4.25,4.81,10.35,7.46,18.11
			c3.06,9,5.41,18.67,7.13,27.97c4.34,23.47,4.56,47.27-1.84,70.2c-4.68,16.76-13.28,40.34-30.44,48.94
			C968.09,627.07,957.1,635.9,948.65,629.85z"/>
		<path d="M1032.48,581.02c-2.96-20.12-7.39-40.02-11.73-59.88c2.14-0.19,3.21-0.29,5.36-0.48c2.91,11.12,5.37,22.94,9.74,33.24
			c1.41,3.33,4.15,6.94,7.94,10.71c3.79,3.77,8.52,7.11,14.24,10.04c5.72,2.93,10.97,4.37,15.51,4.29c6.65-0.13,11.7-3.29,14.63-9.6
			c2.94-6.31,3.23-14.6,1.1-24.82c-2.37-11.38-6.7-22.3-11.25-32.79c-3.83-8.83-7.96-16.55-11.75-22.92
			c-3.79-6.37-7.42-11.43-10.87-15.17c-3.44-3.73-6.78-6.39-9.83-7.46c-1.78-0.62-5.52-1.46-10.76-2.59
			c-5.23-1.13-10.13-2.39-13.49-4.19c-5.21-2.8-9.6-7.72-12.78-12.88c-3.19-5.16-6.27-12.13-9.3-20.8
			c-3.22-9.21-5.73-18.99-7.71-28.55c-3.02-14.54-5.62-29.16-7.88-43.85c-1.78-11.61-3.47-23.27-4.86-34.93
			c-1.08-9.12-1.56-14.75-0.58-16.69c0.59-1.16,1.79-0.93,3.89,0.77c2.1,1.7,4.92,4.92,8.67,9.69c3.93,8.74,7.56,16.83,10.96,24.29
			c4.98,10.95,10.04,21.87,15.11,32.79c-0.92,0.42-1.37,0.62-2.29,1.04c-5.14-11.29-10.19-22.63-15.52-33.83
			c-2.56-4.56-4.96-8.52-7.17-11.87c-4.64-6.5-7.15-8.94-8.29-7.48c-1.48,1.89-0.6,9.23,1.6,21.79
			c2.72,15.49,6.17,30.93,10.26,46.11c2.96,10.98,5.67,19.34,8.26,25.08c2.59,5.74,5.69,10.1,9.42,13.06
			c2.54,2.02,6.27,3.59,11.29,4.77c5.02,1.18,10.45,2.47,14.5,4.49c4.73,2.36,9.56,7.07,13.73,11.99
			c4.17,4.92,8.96,11.58,14.38,19.91c6.23,9.56,11.83,19.73,16.84,29.76c10.75,21.55,20.49,46.95,19.91,71.27
			c-0.41,17.35-13.8,29.88-30.84,30.06C1057.52,595.56,1045.11,589.24,1032.48,581.02z"/>
	</g>
</g>
</svg>
